<svg width="512" height="512" viewBox="0 0 512 512" fill="none" xmlns="http://www.w3.org/2000/svg">
  <!-- Background -->
  <rect width="512" height="512" rx="128" fill="url(#gradient)"/>
  
  <!-- Scale of Justice -->
  <g transform="translate(128, 128) scale(0.5)">
    <!-- Left Scale -->
    <circle cx="200" cy="300" r="60" fill="none" stroke="#ffffff" stroke-width="8"/>
    <line x1="200" y1="240" x2="200" y2="180" stroke="#ffffff" stroke-width="8" stroke-linecap="round"/>
    
    <!-- Right Scale -->
    <circle cx="312" cy="300" r="60" fill="none" stroke="#ffffff" stroke-width="8"/>
    <line x1="312" y1="240" x2="312" y2="180" stroke="#ffffff" stroke-width="8" stroke-linecap="round"/>
    
    <!-- Center Column -->
    <rect x="248" y="120" width="16" height="200" fill="#ffffff" rx="8"/>
    
    <!-- Cross Bar -->
    <rect x="180" y="160" width="152" height="16" fill="#ffffff" rx="8"/>
    
    <!-- Documents -->
    <rect x="180" y="320" width="40" height="50" fill="#ffffff" rx="4"/>
    <rect x="190" y="330" width="20" height="2" fill="#4f46e5"/>
    <rect x="190" y="335" width="20" height="2" fill="#4f46e5"/>
    <rect x="190" y="340" width="20" height="2" fill="#4f46e5"/>
    
    <rect x="292" y="320" width="40" height="50" fill="#ffffff" rx="4"/>
    <rect x="302" y="330" width="20" height="2" fill="#4f46e5"/>
    <rect x="302" y="335" width="20" height="2" fill="#4f46e5"/>
    <rect x="302" y="340" width="20" height="2" fill="#4f46e5"/>
    
    <!-- AI Brain Symbol -->
    <circle cx="256" cy="80" r="25" fill="#ffffff"/>
    <path d="M256 65 L256 75 M246 70 L266 70 M246 85 L266 85 M256 85 L256 95" stroke="#4f46e5" stroke-width="3" stroke-linecap="round"/>
  </g>
  
  <!-- Gradient Definition -->
  <defs>
    <linearGradient id="gradient" x1="0%" y1="0%" x2="100%" y2="100%">
      <stop offset="0%" style="stop-color:#4f46e5;stop-opacity:1" />
      <stop offset="100%" style="stop-color:#6366f1;stop-opacity:1" />
    </linearGradient>
  </defs>
</svg> 